<?xml version="1.0" encoding="iso-8859-1"?>
<!-- Generator: Adobe Illustrator 19.0.0, SVG Export Plug-In . SVG Version: 6.00 Build 0)  -->
<svg version="1.1" id="Layer_1" xmlns="http://www.w3.org/2000/svg" xmlns:xlink="http://www.w3.org/1999/xlink" x="0px" y="0px"
	 viewBox="0 0 512.001 512.001" style="enable-background:new 0 0 512.001 512.001;" xml:space="preserve">
<g>
	<g>
		<path d="M256,0C114.842,0,0.001,114.841,0.001,256.001S114.842,512.001,256,512.001c141.159,0,256.001-114.841,256.001-256.001
			S397.159,0,256,0z M256,493.701c-131.068,0-237.7-106.631-237.7-237.7S124.932,18.299,256,18.299
			c131.069,0,237.702,106.632,237.702,237.702S387.069,493.701,256,493.701z"/>
	</g>
</g>
<g>
	<g>
		<path d="M206.506,168.039c-11.6-19.417-32.028-31.007-54.646-31.007c-22.618,0-43.046,11.592-54.646,31.007
			c-2.592,4.338-1.176,9.956,3.162,12.547c4.341,2.595,9.956,1.177,12.547-3.161c8.265-13.834,22.821-22.094,38.937-22.094
			c16.115,0,30.672,8.26,38.937,22.094c1.713,2.868,4.749,4.458,7.864,4.458c1.597,0,3.213-0.418,4.683-1.297
			C207.682,177.994,209.097,172.377,206.506,168.039z"/>
	</g>
</g>
<g>
	<g>
		<path d="M414.789,168.039c-11.6-19.414-32.029-31.006-54.646-31.006c-22.618,0-43.046,11.592-54.646,31.007
			c-2.592,4.338-1.176,9.956,3.162,12.547c4.341,2.594,9.957,1.176,12.547-3.162c8.265-13.834,22.821-22.094,38.937-22.094
			c16.115,0,30.672,8.26,38.937,22.094c1.713,2.868,4.749,4.458,7.864,4.458c1.597,0,3.213-0.418,4.683-1.297
			C415.965,177.994,417.38,172.377,414.789,168.039z"/>
	</g>
</g>
<g>
	<g>
		<path d="M156.485,229.84h-43.396c-5.053,0-9.15,4.097-9.15,9.15s4.097,9.15,9.15,9.15h13.342c-2.422,4.661-3.8,9.947-3.8,15.553
			c0,18.666,15.186,33.852,33.852,33.852c18.666,0,33.853-15.186,33.853-33.852C190.337,245.026,175.151,229.84,156.485,229.84z"/>
	</g>
</g>
<g>
	<g>
		<path d="M375.036,229.84h-43.394c-5.053,0-9.15,4.097-9.15,9.15c0,5.053,4.097,9.15,9.15,9.15h13.343
			c-2.422,4.661-3.8,9.947-3.8,15.553c0,18.666,15.186,33.852,33.852,33.852c18.666,0,33.852-15.186,33.852-33.852
			C408.888,245.026,393.702,229.84,375.036,229.84z"/>
	</g>
</g>
<g>
	<g>
		<path d="M369.549,320.62c-0.245-5.048-4.548-8.937-9.583-8.696c-5.048,0.245-8.941,4.535-8.696,9.581
			c0.507,10.443-2.731,18.328-9.899,24.111c-30.749,24.805-122.373,7.505-155.082-1.254c-4.887-1.309-9.899,1.59-11.205,6.471
			c-1.308,4.88,1.587,9.896,6.467,11.205c1.272,0.342,31.584,8.405,67.505,12.469c13.323,1.507,25.575,2.259,36.748,2.259
			c30.62,0,53.1-5.652,67.05-16.901C364.732,350.287,370.349,337.084,369.549,320.62z"/>
	</g>
</g>
<g>
	<g>
		<path d="M317.859,399.092c-0.531-5.026-5.042-8.671-10.06-8.138c-26.495,2.801-58.445-1.166-80.584-4.983
			c-4.979-0.86-9.713,2.481-10.572,7.461c-0.86,4.98,2.481,9.712,7.461,10.572c17.699,3.053,41.446,6.186,64.375,6.186
			c7.233,0,14.388-0.312,21.243-1.037C314.747,408.621,318.391,404.118,317.859,399.092z"/>
	</g>
</g>
<g>
	<g>
		<g>
			<circle cx="165.864" cy="259.664" r="9.15"/>
			<circle cx="384.233" cy="259.664" r="9.15"/>
		</g>
	</g>
</g>
<g>
</g>
<g>
</g>
<g>
</g>
<g>
</g>
<g>
</g>
<g>
</g>
<g>
</g>
<g>
</g>
<g>
</g>
<g>
</g>
<g>
</g>
<g>
</g>
<g>
</g>
<g>
</g>
<g>
</g>
</svg>
