<svg width="60" height="58" viewBox="0 0 60 58" fill="none" xmlns="http://www.w3.org/2000/svg">
<rect x="12.2091" y="0.591248" width="28.8168" height="34.3258" rx="12" transform="rotate(4 12.2091 0.591248)" fill="#B6BBBF" fill-opacity="0.48"/>
<rect x="15.265" y="4.84064" width="12.0927" height="2.11888" rx="1.05944" transform="rotate(4 15.265 4.84064)" fill="white"/>
<rect x="14.9841" y="8.85669" width="22.1272" height="2.11888" rx="1.05944" transform="rotate(4 14.9841 8.85669)" fill="white"/>
<rect x="14.7033" y="12.8727" width="22.1272" height="2.11888" rx="1.05944" transform="rotate(4 14.7033 12.8727)" fill="white"/>
<rect x="14.4077" y="17.1002" width="22.1272" height="2.11888" rx="1.05944" transform="rotate(4 14.4077 17.1002)" fill="white"/>
<rect x="35.1247" y="7.71619" width="28.8168" height="34.3258" rx="12" transform="rotate(37 35.1247 7.71619)" fill="#33A5F9" fill-opacity="0.48"/>
<rect x="35.3731" y="12.9443" width="12.0927" height="2.11888" rx="1.05944" transform="rotate(37 35.3731 12.9443)" fill="white"/>
<rect x="32.9503" y="16.1595" width="22.1271" height="2.11888" rx="1.05944" transform="rotate(37 32.9503 16.1595)" fill="white"/>
<rect x="30.5275" y="19.3748" width="22.1271" height="2.11888" rx="1.05944" transform="rotate(37 30.5275 19.3748)" fill="white"/>
<rect x="27.9771" y="22.7592" width="22.1271" height="2.11888" rx="1.05944" transform="rotate(37 27.9771 22.7592)" fill="white"/>
<path d="M0.558064 45.7079L2.37425 19.7353C2.58132 16.774 5.14985 14.5412 8.11122 14.7482C10.246 14.8975 12.0888 16.2989 12.8031 18.3161L13.4236 20.0684C14.4867 23.0708 17.2295 25.1565 20.4067 25.3787L49.8909 27.4404C54.2984 27.7486 57.6216 31.5715 57.3134 35.979L56.3602 49.61C56.052 54.0175 52.2291 57.3407 47.8216 57.0325L7.98052 54.2465C3.57301 53.9383 0.249861 50.1154 0.558064 45.7079Z" fill="#6C63FF" stroke="#782E2E"/>
</svg>
